<svg xmlns="http://www.w3.org/2000/svg" width="1920" height="1080"><g id="img" transform="rotate(180 960 540)"><path d="M708,1290L282,1345L1130,1307Z" fill="#c26933" stroke="#c26933" stroke-width="1.51"/><path d="M1130,1307L282,1345L1340,1321Z" fill="#c15d23" stroke="#c15d23" stroke-width="1.51"/><path d="M1192,-201L1534,-227L1638,-256Z" fill="#fba479" stroke="#fba479" stroke-width="1.51"/><path d="M829,-219L1192,-201L1638,-256Z" fill="#ffb080" stroke="#ffb080" stroke-width="1.51"/><path d="M544,-240L829,-219L1638,-256Z" fill="#ffbd8d" stroke="#ffbd8d" stroke-width="1.51"/><path d="M395,-252L544,-240L1638,-256Z" fill="#ffc598" stroke="#ffc598" stroke-width="1.51"/><path d="M1788,1269L1650,1318L2048,1293Z" fill="#9b3204" stroke="#9b3204" stroke-width="1.51"/><path d="M1638,-256L1947,-184L2077,-197Z" fill="#d99270" stroke="#d99270" stroke-width="1.51"/><path d="M1958,1239L2048,1293L2083,1094Z" fill="#962f04" stroke="#962f04" stroke-width="1.51"/><path d="M1942,1183L1958,1239L2083,1094Z" fill="#9b3204" stroke="#9b3204" stroke-width="1.51"/><path d="M2066,1015L2083,1094L2086,871Z" fill="#ab3704" stroke="#ab3704" stroke-width="1.51"/><path d="M1944,485L2070,546L2089,363Z" fill="#c66329" stroke="#c66329" stroke-width="1.51"/><path d="M1912,820L2086,871L2127,671Z" fill="#bc4709" stroke="#bc4709" stroke-width="1.51"/><path d="M1889,645L1912,820L2127,671Z" fill="#c44f0f" stroke="#c44f0f" stroke-width="1.51"/><path d="M2086,871L2083,1094L2127,671Z" fill="#b33e06" stroke="#b33e06" stroke-width="1.51"/><path d="M2089,363L2070,546L2127,671Z" fill="#c15c21" stroke="#c15c21" stroke-width="1.51"/><path d="M1898,-47L2045,51L2131,-53Z" fill="#cc8660" stroke="#cc8660" stroke-width="1.51"/><path d="M2077,-197L1947,-184L2131,-53Z" fill="#cc8a6a" stroke="#cc8a6a" stroke-width="1.51"/><path d="M1947,-184L1898,-47L2131,-53Z" fill="#d08a67" stroke="#d08a67" stroke-width="1.51"/><path d="M2062,260L2089,363L2131,-53Z" fill="#c47749" stroke="#c47749" stroke-width="1.51"/><path d="M2045,51L2062,260L2131,-53Z" fill="#c67f55" stroke="#c67f55" stroke-width="1.51"/><path d="M2089,363L2127,671L2131,-53Z" fill="#c16b37" stroke="#c16b37" stroke-width="1.51"/><path d="M2070,546L1889,645L2127,671Z" fill="#c35618" stroke="#c35618" stroke-width="1.51"/><path d="M1958,1239L1788,1269L2048,1293Z" fill="#973004" stroke="#973004" stroke-width="1.51"/><path d="M2045,51L1882,81L2062,260Z" fill="#cc7f51" stroke="#cc7f51" stroke-width="1.51"/><path d="M1882,81L1903,283L2062,260Z" fill="#ce7a48" stroke="#ce7a48" stroke-width="1.51"/><path d="M1919,967L2066,1015L2086,871Z" fill="#b43b03" stroke="#b43b03" stroke-width="1.51"/><path d="M1899,400L1944,485L2089,363Z" fill="#ca682f" stroke="#ca682f" stroke-width="1.51"/><path d="M2062,260L1903,283L2089,363Z" fill="#c8703b" stroke="#c8703b" stroke-width="1.51"/><path d="M1903,283L1899,400L2089,363Z" fill="#cb6f36" stroke="#cb6f36" stroke-width="1.51"/><path d="M1912,820L1919,967L2086,871Z" fill="#bb4105" stroke="#bb4105" stroke-width="1.51"/><path d="M2066,1015L1942,1183L2083,1094Z" fill="#a23404" stroke="#a23404" stroke-width="1.51"/><path d="M1919,967L1942,1183L2066,1015Z" fill="#ab3703" stroke="#ab3703" stroke-width="1.51"/><path d="M1944,485L1889,645L2070,546Z" fill="#c95d1e" stroke="#c95d1e" stroke-width="1.51"/><path d="M1638,-256L1768,-163L1947,-184Z" fill="#e29571" stroke="#e29571" stroke-width="1.51"/><path d="M1898,-47L1882,81L2045,51Z" fill="#d1865c" stroke="#d1865c" stroke-width="1.51"/><path d="M1882,81L1815,212L1903,283Z" fill="#d47e4b" stroke="#d47e4b" stroke-width="1.51"/><path d="M1919,967L1834,976L1942,1183Z" fill="#b23a03" stroke="#b23a03" stroke-width="1.51"/><path d="M1834,976L1755,1126L1942,1183Z" fill="#af3903" stroke="#af3903" stroke-width="1.51"/><path d="M1819,553L1889,645L1944,485Z" fill="#cf5f1e" stroke="#cf5f1e" stroke-width="1.51"/><path d="M1794,-92L1898,-47L1947,-184Z" fill="#d88e69" stroke="#d88e69" stroke-width="1.51"/><path d="M1942,1183L1788,1269L1958,1239Z" fill="#9c3204" stroke="#9c3204" stroke-width="1.51"/><path d="M1889,645L1764,727L1912,820Z" fill="#cc510c" stroke="#cc510c" stroke-width="1.51"/><path d="M1796,835L1834,976L1912,820Z" fill="#c54505" stroke="#c54505" stroke-width="1.51"/><path d="M1912,820L1834,976L1919,967Z" fill="#bf4103" stroke="#bf4103" stroke-width="1.51"/><path d="M1768,-163L1794,-92L1947,-184Z" fill="#dc916c" stroke="#dc916c" stroke-width="1.51"/><path d="M1899,400L1804,413L1944,485Z" fill="#d16a2d" stroke="#d16a2d" stroke-width="1.51"/><path d="M1804,413L1819,553L1944,485Z" fill="#d26627" stroke="#d26627" stroke-width="1.51"/><path d="M1755,1126L1788,1269L1942,1183Z" fill="#a53503" stroke="#a53503" stroke-width="1.51"/><path d="M1804,413L1899,400L1903,283Z" fill="#d27035" stroke="#d27035" stroke-width="1.51"/><path d="M1764,727L1796,835L1912,820Z" fill="#cb4d08" stroke="#cb4d08" stroke-width="1.51"/><path d="M1765,143L1815,212L1882,81Z" fill="#d98451" stroke="#d98451" stroke-width="1.51"/><path d="M1794,-92L1882,81L1898,-47Z" fill="#d88b61" stroke="#d88b61" stroke-width="1.51"/><path d="M1815,212L1804,413L1903,283Z" fill="#d5763c" stroke="#d5763c" stroke-width="1.51"/><path d="M1794,-92L1765,143L1882,81Z" fill="#dc8a5c" stroke="#dc8a5c" stroke-width="1.51"/><path d="M1819,553L1764,727L1889,645Z" fill="#d15a17" stroke="#d15a17" stroke-width="1.51"/><path d="M1647,45L1765,143L1794,-92Z" fill="#e38d5e" stroke="#e38d5e" stroke-width="1.51"/><path d="M1608,262L1662,424L1804,413Z" fill="#e17636" stroke="#e17636" stroke-width="1.51"/><path d="M1608,262L1804,413L1815,212Z" fill="#de7a3e" stroke="#de7a3e" stroke-width="1.51"/><path d="M1690,652L1764,727L1819,553Z" fill="#d75c17" stroke="#d75c17" stroke-width="1.51"/><path d="M1804,413L1663,489L1819,553Z" fill="#da6a28" stroke="#da6a28" stroke-width="1.51"/><path d="M1796,835L1642,1002L1834,976Z" fill="#c94303" stroke="#c94303" stroke-width="1.51"/><path d="M1642,1002L1755,1126L1834,976Z" fill="#be3f02" stroke="#be3f02" stroke-width="1.51"/><path d="M1642,1002L1681,1114L1755,1126Z" fill="#bd3e02" stroke="#bd3e02" stroke-width="1.51"/><path d="M1620,-32L1647,45L1794,-92Z" fill="#e89265" stroke="#e89265" stroke-width="1.51"/><path d="M1663,489L1690,652L1819,553Z" fill="#dd641f" stroke="#dd641f" stroke-width="1.51"/><path d="M1679,790L1642,1002L1796,835Z" fill="#d14a04" stroke="#d14a04" stroke-width="1.51"/><path d="M1662,424L1663,489L1804,413Z" fill="#df6f2d" stroke="#df6f2d" stroke-width="1.51"/><path d="M1765,143L1608,262L1815,212Z" fill="#e0824a" stroke="#e0824a" stroke-width="1.51"/><path d="M1755,1126L1681,1114L1788,1269Z" fill="#af3903" stroke="#af3903" stroke-width="1.51"/><path d="M1764,727L1679,790L1796,835Z" fill="#d35008" stroke="#d35008" stroke-width="1.51"/><path d="M1681,1114L1650,1318L1788,1269Z" fill="#ac3703" stroke="#ac3703" stroke-width="1.51"/><path d="M1768,-163L1620,-32L1794,-92Z" fill="#e5946a" stroke="#e5946a" stroke-width="1.51"/><path d="M1638,-256L1620,-32L1768,-163Z" fill="#eb986f" stroke="#eb986f" stroke-width="1.51"/><path d="M1647,45L1608,262L1765,143Z" fill="#e68952" stroke="#e68952" stroke-width="1.51"/><path d="M1690,652L1679,790L1764,727Z" fill="#d8560d" stroke="#d8560d" stroke-width="1.51"/><path d="M1534,-227L1620,-32L1638,-256Z" fill="#f39c71" stroke="#f39c71" stroke-width="1.51"/><path d="M1529,67L1608,262L1647,45Z" fill="#ee8e57" stroke="#ee8e57" stroke-width="1.51"/><path d="M1449,1269L1340,1321L1650,1318Z" fill="#b43e05" stroke="#b43e05" stroke-width="1.51"/><path d="M1434,1187L1449,1269L1650,1318Z" fill="#b73e04" stroke="#b73e04" stroke-width="1.51"/><path d="M1608,262L1530,340L1662,424Z" fill="#ea7c3a" stroke="#ea7c3a" stroke-width="1.51"/><path d="M1534,894L1642,1002L1679,790Z" fill="#d74b03" stroke="#d74b03" stroke-width="1.51"/><path d="M1434,1187L1650,1318L1681,1114Z" fill="#b83c02" stroke="#b83c02" stroke-width="1.51"/><path d="M1663,489L1524,486L1690,652Z" fill="#e66a22" stroke="#e66a22" stroke-width="1.51"/><path d="M1524,486L1441,713L1690,652Z" fill="#ea651a" stroke="#ea651a" stroke-width="1.51"/><path d="M1441,713L1679,790L1690,652Z" fill="#e25a0e" stroke="#e25a0e" stroke-width="1.51"/><path d="M1642,1002L1434,1187L1681,1114Z" fill="#c44002" stroke="#c44002" stroke-width="1.51"/><path d="M1479,974L1434,1187L1642,1002Z" fill="#ce4602" stroke="#ce4602" stroke-width="1.51"/><path d="M1441,713L1534,894L1679,790Z" fill="#e35507" stroke="#e35507" stroke-width="1.51"/><path d="M1529,67L1469,187L1608,262Z" fill="#f18d51" stroke="#f18d51" stroke-width="1.51"/><path d="M1534,-227L1477,-60L1620,-32Z" fill="#f59c6e" stroke="#f59c6e" stroke-width="1.51"/><path d="M1662,424L1524,486L1663,489Z" fill="#e7702b" stroke="#e7702b" stroke-width="1.51"/><path d="M1530,340L1524,486L1662,424Z" fill="#ec7631" stroke="#ec7631" stroke-width="1.51"/><path d="M1620,-32L1529,67L1647,45Z" fill="#ef9360" stroke="#ef9360" stroke-width="1.51"/><path d="M1534,894L1479,974L1642,1002Z" fill="#d94801" stroke="#d94801" stroke-width="1.51"/><path d="M1192,-201L1279,-162L1534,-227Z" fill="#ffa97a" stroke="#ffa97a" stroke-width="1.51"/><path d="M1477,-60L1529,67L1620,-32Z" fill="#f49765" stroke="#f49765" stroke-width="1.51"/><path d="M1469,187L1530,340L1608,262Z" fill="#f08545" stroke="#f08545" stroke-width="1.51"/><path d="M1348,982L1434,1187L1479,974Z" fill="#d24c05" stroke="#d24c05" stroke-width="1.51"/><path d="M1285,521L1340,653L1524,486Z" fill="#f27425" stroke="#f27425" stroke-width="1.51"/><path d="M1340,653L1441,713L1524,486Z" fill="#ee6c1d" stroke="#ee6c1d" stroke-width="1.51"/><path d="M1361,122L1469,187L1529,67Z" fill="#f59459" stroke="#f59459" stroke-width="1.51"/><path d="M1477,-60L1378,-21L1529,67Z" fill="#f79b67" stroke="#f79b67" stroke-width="1.51"/><path d="M1469,187L1340,228L1530,340Z" fill="#f38a49" stroke="#f38a49" stroke-width="1.51"/><path d="M1361,416L1524,486L1530,340Z" fill="#f07b34" stroke="#f07b34" stroke-width="1.51"/><path d="M1279,-162L1477,-60L1534,-227Z" fill="#faa374" stroke="#faa374" stroke-width="1.51"/><path d="M1329,825L1479,974L1534,894Z" fill="#e15306" stroke="#e15306" stroke-width="1.51"/><path d="M1441,713L1329,825L1534,894Z" fill="#e75b0b" stroke="#e75b0b" stroke-width="1.51"/><path d="M1361,416L1285,521L1524,486Z" fill="#f37a2e" stroke="#f37a2e" stroke-width="1.51"/><path d="M1340,228L1361,416L1530,340Z" fill="#f38640" stroke="#f38640" stroke-width="1.51"/><path d="M1378,-21L1361,122L1529,67Z" fill="#f79a62" stroke="#f79a62" stroke-width="1.51"/><path d="M829,-219L1055,-175L1192,-201Z" fill="#ffba8a" stroke="#ffba8a" stroke-width="1.51"/><path d="M1348,982L1284,1096L1434,1187Z" fill="#d04d07" stroke="#d04d07" stroke-width="1.51"/><path d="M1279,-162L1378,-21L1477,-60Z" fill="#fca371" stroke="#fca371" stroke-width="1.51"/><path d="M1329,825L1348,982L1479,974Z" fill="#e25407" stroke="#e25407" stroke-width="1.51"/><path d="M1361,122L1340,228L1469,187Z" fill="#f79354" stroke="#f79354" stroke-width="1.51"/><path d="M1434,1187L1340,1321L1449,1269Z" fill="#bb4407" stroke="#bb4407" stroke-width="1.51"/><path d="M1340,653L1329,825L1441,713Z" fill="#ed6512" stroke="#ed6512" stroke-width="1.51"/><path d="M1284,1096L1340,1321L1434,1187Z" fill="#c34907" stroke="#c34907" stroke-width="1.51"/><path d="M1284,1096L1130,1307L1340,1321Z" fill="#c34d0b" stroke="#c34d0b" stroke-width="1.51"/><path d="M1225,224L1231,397L1340,228Z" fill="#fa904a" stroke="#fa904a" stroke-width="1.51"/><path d="M1340,228L1231,397L1361,416Z" fill="#f78940" stroke="#f78940" stroke-width="1.51"/><path d="M1279,-162L1131,-52L1378,-21Z" fill="#ffa974" stroke="#ffa974" stroke-width="1.51"/><path d="M1148,97L1361,122L1378,-21Z" fill="#fca064" stroke="#fca064" stroke-width="1.51"/><path d="M1131,-52L1148,97L1378,-21Z" fill="#ffa76d" stroke="#ffa76d" stroke-width="1.51"/><path d="M1138,1128L1130,1307L1284,1096Z" fill="#ca5310" stroke="#ca5310" stroke-width="1.51"/><path d="M1176,676L1329,825L1340,653Z" fill="#f16b16" stroke="#f16b16" stroke-width="1.51"/><path d="M1329,825L1206,1024L1348,982Z" fill="#e45709" stroke="#e45709" stroke-width="1.51"/><path d="M1231,397L1285,521L1361,416Z" fill="#f78235" stroke="#f78235" stroke-width="1.51"/><path d="M1225,224L1340,228L1361,122Z" fill="#f99655" stroke="#f99655" stroke-width="1.51"/><path d="M1148,97L1225,224L1361,122Z" fill="#fc9d5d" stroke="#fc9d5d" stroke-width="1.51"/><path d="M1137,838L1206,1024L1329,825Z" fill="#ea5f10" stroke="#ea5f10" stroke-width="1.51"/><path d="M1285,521L1176,676L1340,653Z" fill="#f57422" stroke="#f57422" stroke-width="1.51"/><path d="M1206,1024L1284,1096L1348,982Z" fill="#da5409" stroke="#da5409" stroke-width="1.51"/><path d="M837,1249L708,1290L1130,1307Z" fill="#c56125" stroke="#c56125" stroke-width="1.51"/><path d="M1176,676L1137,838L1329,825Z" fill="#f06a16" stroke="#f06a16" stroke-width="1.51"/><path d="M1143,579L1176,676L1285,521Z" fill="#f77a28" stroke="#f77a28" stroke-width="1.51"/><path d="M1192,-201L1131,-52L1279,-162Z" fill="#ffae7b" stroke="#ffae7b" stroke-width="1.51"/><path d="M1231,397L1143,579L1285,521Z" fill="#f88131" stroke="#f88131" stroke-width="1.51"/><path d="M1206,1024L1138,1128L1284,1096Z" fill="#d6560e" stroke="#d6560e" stroke-width="1.51"/><path d="M1005,1247L837,1249L1130,1307Z" fill="#c65b1d" stroke="#c65b1d" stroke-width="1.51"/><path d="M1137,838L1077,972L1206,1024Z" fill="#e86115" stroke="#e86115" stroke-width="1.51"/><path d="M1049,542L1143,579L1231,397Z" fill="#fa8635" stroke="#fa8635" stroke-width="1.51"/><path d="M1024,413L1049,542L1231,397Z" fill="#fb8c3e" stroke="#fb8c3e" stroke-width="1.51"/><path d="M1225,224L1007,244L1231,397Z" fill="#fb964f" stroke="#fb964f" stroke-width="1.51"/><path d="M1007,244L1024,413L1231,397Z" fill="#fb954a" stroke="#fb954a" stroke-width="1.51"/><path d="M1148,97L1007,244L1225,224Z" fill="#fda05e" stroke="#fda05e" stroke-width="1.51"/><path d="M1090,1131L1130,1307L1138,1128Z" fill="#cb5715" stroke="#cb5715" stroke-width="1.51"/><path d="M1078,817L1137,838L1176,676Z" fill="#f26f1c" stroke="#f26f1c" stroke-width="1.51"/><path d="M1055,-175L1131,-52L1192,-201Z" fill="#ffb380" stroke="#ffb380" stroke-width="1.51"/><path d="M1077,972L1138,1128L1206,1024Z" fill="#dc5c14" stroke="#dc5c14" stroke-width="1.51"/><path d="M1077,972L1090,1131L1138,1128Z" fill="#d95d17" stroke="#d95d17" stroke-width="1.51"/><path d="M1131,-52L1060,-21L1148,97Z" fill="#ffad73" stroke="#ffad73" stroke-width="1.51"/><path d="M1089,659L1078,817L1176,676Z" fill="#f57522" stroke="#f57522" stroke-width="1.51"/><path d="M1143,579L1089,659L1176,676Z" fill="#f77a28" stroke="#f77a28" stroke-width="1.51"/><path d="M1090,1131L1005,1247L1130,1307Z" fill="#c85819" stroke="#c85819" stroke-width="1.51"/><path d="M-130,-225L332,-235L395,-252Z" fill="#ffe7cf" stroke="#ffe7cf" stroke-width="1.51"/><path d="M1078,817L1077,972L1137,838Z" fill="#ed691b" stroke="#ed691b" stroke-width="1.51"/><path d="M1060,-21L979,59L1148,97Z" fill="#ffae72" stroke="#ffae72" stroke-width="1.51"/><path d="M979,59L1007,244L1148,97Z" fill="#ffaa6a" stroke="#ffaa6a" stroke-width="1.51"/><path d="M1055,-175L1060,-21L1131,-52Z" fill="#ffb37f" stroke="#ffb37f" stroke-width="1.51"/><path d="M1049,542L1089,659L1143,579Z" fill="#f9812f" stroke="#f9812f" stroke-width="1.51"/><path d="M844,943L883,1188L1077,972Z" fill="#e16923" stroke="#e16923" stroke-width="1.51"/><path d="M844,943L1077,972L1078,817Z" fill="#ed6c21" stroke="#ed6c21" stroke-width="1.51"/><path d="M853,805L844,943L1078,817Z" fill="#f17529" stroke="#f17529" stroke-width="1.51"/><path d="M1049,542L916,584L1089,659Z" fill="#fb8534" stroke="#fb8534" stroke-width="1.51"/><path d="M927,738L1078,817L1089,659Z" fill="#f67825" stroke="#f67825" stroke-width="1.51"/><path d="M1077,972L883,1188L1090,1131Z" fill="#d8611d" stroke="#d8611d" stroke-width="1.51"/><path d="M883,1188L1005,1247L1090,1131Z" fill="#cd5e1e" stroke="#cd5e1e" stroke-width="1.51"/><path d="M916,584L927,738L1089,659Z" fill="#f98230" stroke="#f98230" stroke-width="1.51"/><path d="M1055,-175L872,-52L1060,-21Z" fill="#ffb884" stroke="#ffb884" stroke-width="1.51"/><path d="M927,738L853,805L1078,817Z" fill="#f57928" stroke="#f57928" stroke-width="1.51"/><path d="M489,1271L282,1345L708,1290Z" fill="#c67646" stroke="#c67646" stroke-width="1.51"/><path d="M1007,244L919,396L1024,413Z" fill="#fd9b50" stroke="#fd9b50" stroke-width="1.51"/><path d="M1024,413L916,584L1049,542Z" fill="#fd8d3d" stroke="#fd8d3d" stroke-width="1.51"/><path d="M872,-52L979,59L1060,-21Z" fill="#ffb57d" stroke="#ffb57d" stroke-width="1.51"/><path d="M919,396L916,584L1024,413Z" fill="#fe9446" stroke="#fe9446" stroke-width="1.51"/><path d="M829,-219L872,-52L1055,-175Z" fill="#ffbf8d" stroke="#ffbf8d" stroke-width="1.51"/><path d="M979,59L829,124L1007,244Z" fill="#ffaf6f" stroke="#ffaf6f" stroke-width="1.51"/><path d="M829,124L851,247L1007,244Z" fill="#ffac6a" stroke="#ffac6a" stroke-width="1.51"/><path d="M851,247L919,396L1007,244Z" fill="#fea35c" stroke="#fea35c" stroke-width="1.51"/><path d="M883,1188L837,1249L1005,1247Z" fill="#cb6224" stroke="#cb6224" stroke-width="1.51"/><path d="M545,1265L489,1271L708,1290Z" fill="#c8723e" stroke="#c8723e" stroke-width="1.51"/><path d="M872,-52L829,124L979,59Z" fill="#ffb77e" stroke="#ffb77e" stroke-width="1.51"/><path d="M781,272L781,392L851,247Z" fill="#fea964" stroke="#fea964" stroke-width="1.51"/><path d="M844,943L774,1164L883,1188Z" fill="#da6c2b" stroke="#da6c2b" stroke-width="1.51"/><path d="M755,557L714,735L916,584Z" fill="#fb8f42" stroke="#fb8f42" stroke-width="1.51"/><path d="M851,247L781,392L919,396Z" fill="#fea35b" stroke="#fea35b" stroke-width="1.51"/><path d="M755,557L916,584L919,396Z" fill="#fd9548" stroke="#fd9548" stroke-width="1.51"/><path d="M781,392L755,557L919,396Z" fill="#fe9d52" stroke="#fe9d52" stroke-width="1.51"/><path d="M916,584L714,735L927,738Z" fill="#fa8738" stroke="#fa8738" stroke-width="1.51"/><path d="M714,735L853,805L927,738Z" fill="#f78234" stroke="#f78234" stroke-width="1.51"/><path d="M544,-240L692,-167L829,-219Z" fill="#ffcda3" stroke="#ffcda3" stroke-width="1.51"/><path d="M687,958L774,1164L844,943Z" fill="#e47431" stroke="#e47431" stroke-width="1.51"/><path d="M742,858L844,943L853,805Z" fill="#f17b32" stroke="#f17b32" stroke-width="1.51"/><path d="M829,-219L690,-115L872,-52Z" fill="#ffc495" stroke="#ffc495" stroke-width="1.51"/><path d="M707,94L829,124L872,-52Z" fill="#ffbb83" stroke="#ffbb83" stroke-width="1.51"/><path d="M774,1164L837,1249L883,1188Z" fill="#ce672b" stroke="#ce672b" stroke-width="1.51"/><path d="M692,-167L690,-115L829,-219Z" fill="#ffc99c" stroke="#ffc99c" stroke-width="1.51"/><path d="M690,-115L707,94L872,-52Z" fill="#ffc28f" stroke="#ffc28f" stroke-width="1.51"/><path d="M829,124L781,272L851,247Z" fill="#ffb06f" stroke="#ffb06f" stroke-width="1.51"/><path d="M714,735L742,858L853,805Z" fill="#f68238" stroke="#f68238" stroke-width="1.51"/><path d="M707,94L781,272L829,124Z" fill="#ffb679" stroke="#ffb679" stroke-width="1.51"/><path d="M742,858L687,958L844,943Z" fill="#ef7a34" stroke="#ef7a34" stroke-width="1.51"/><path d="M774,1164L708,1290L837,1249Z" fill="#cb692f" stroke="#cb692f" stroke-width="1.51"/><path d="M687,958L618,1014L774,1164Z" fill="#e17737" stroke="#e17737" stroke-width="1.51"/><path d="M-130,-225L112,-191L332,-235Z" fill="#ffe9d4" stroke="#ffe9d4" stroke-width="1.51"/><path d="M592,643L714,735L755,557Z" fill="#fb9349" stroke="#fb9349" stroke-width="1.51"/><path d="M618,1014L557,1099L774,1164Z" fill="#db773a" stroke="#db773a" stroke-width="1.51"/><path d="M626,378L755,557L781,392Z" fill="#fea25b" stroke="#fea25b" stroke-width="1.51"/><path d="M707,94L538,234L781,272Z" fill="#feb87c" stroke="#feb87c" stroke-width="1.51"/><path d="M538,234L626,378L781,272Z" fill="#fdb271" stroke="#fdb271" stroke-width="1.51"/><path d="M626,378L781,392L781,272Z" fill="#fdaa64" stroke="#fdaa64" stroke-width="1.51"/><path d="M626,378L542,507L755,557Z" fill="#fda45c" stroke="#fda45c" stroke-width="1.51"/><path d="M557,1099L708,1290L774,1164Z" fill="#d07036" stroke="#d07036" stroke-width="1.51"/><path d="M690,-115L541,-58L707,94Z" fill="#ffc898" stroke="#ffc898" stroke-width="1.51"/><path d="M557,1099L545,1265L708,1290Z" fill="#cd733d" stroke="#cd733d" stroke-width="1.51"/><path d="M542,507L592,643L755,557Z" fill="#fd9d55" stroke="#fd9d55" stroke-width="1.51"/><path d="M541,-58L550,79L707,94Z" fill="#ffc795" stroke="#ffc795" stroke-width="1.51"/><path d="M714,735L548,830L742,858Z" fill="#f58740" stroke="#f58740" stroke-width="1.51"/><path d="M548,830L687,958L742,858Z" fill="#f1833e" stroke="#f1833e" stroke-width="1.51"/><path d="M550,79L538,234L707,94Z" fill="#fec28b" stroke="#fec28b" stroke-width="1.51"/><path d="M592,643L548,830L714,735Z" fill="#f99048" stroke="#f99048" stroke-width="1.51"/><path d="M548,830L618,1014L687,958Z" fill="#ef8140" stroke="#ef8140" stroke-width="1.51"/><path d="M541,-58L690,-115L692,-167Z" fill="#ffcca0" stroke="#ffcca0" stroke-width="1.51"/><path d="M544,-240L541,-58L692,-167Z" fill="#ffd1a8" stroke="#ffd1a8" stroke-width="1.51"/><path d="M548,830L490,1028L618,1014Z" fill="#ee8445" stroke="#ee8445" stroke-width="1.51"/><path d="M420,349L542,507L626,378Z" fill="#feb06f" stroke="#feb06f" stroke-width="1.51"/><path d="M538,234L420,349L626,378Z" fill="#feb779" stroke="#feb779" stroke-width="1.51"/><path d="M406,671L548,830L592,643Z" fill="#fb9853" stroke="#fb9853" stroke-width="1.51"/><path d="M490,1028L557,1099L618,1014Z" fill="#e27f43" stroke="#e27f43" stroke-width="1.51"/><path d="M420,349L463,508L542,507Z" fill="#ffaf6f" stroke="#ffaf6f" stroke-width="1.51"/><path d="M411,866L490,1028L548,830Z" fill="#f28b4d" stroke="#f28b4d" stroke-width="1.51"/><path d="M450,110L538,234L550,79Z" fill="#fec792" stroke="#fec792" stroke-width="1.51"/><path d="M541,-58L462,-11L550,79Z" fill="#ffcda0" stroke="#ffcda0" stroke-width="1.51"/><path d="M489,1271L545,1265L557,1099Z" fill="#cf7843" stroke="#cf7843" stroke-width="1.51"/><path d="M542,507L463,508L592,643Z" fill="#fea45f" stroke="#fea45f" stroke-width="1.51"/><path d="M463,508L406,671L592,643Z" fill="#fea25f" stroke="#fea25f" stroke-width="1.51"/><path d="M-130,-225L-51,-201L112,-191Z" fill="#ffecdb" stroke="#ffecdb" stroke-width="1.51"/><path d="M395,-252L462,-11L541,-58Z" fill="#ffd6b0" stroke="#ffd6b0" stroke-width="1.51"/><path d="M395,-252L541,-58L544,-240Z" fill="#ffd7b3" stroke="#ffd7b3" stroke-width="1.51"/><path d="M406,671L411,866L548,830Z" fill="#f99554" stroke="#f99554" stroke-width="1.51"/><path d="M490,1028L396,1147L557,1099Z" fill="#dd804a" stroke="#dd804a" stroke-width="1.51"/><path d="M396,1147L489,1271L557,1099Z" fill="#d37c48" stroke="#d37c48" stroke-width="1.51"/><path d="M450,110L407,230L538,234Z" fill="#fec490" stroke="#fec490" stroke-width="1.51"/><path d="M407,230L420,349L538,234Z" fill="#febf86" stroke="#febf86" stroke-width="1.51"/><path d="M462,-11L450,110L550,79Z" fill="#fecc9d" stroke="#fecc9d" stroke-width="1.51"/><path d="M395,-252L300,-116L462,-11Z" fill="#fedbb9" stroke="#fedbb9" stroke-width="1.51"/><path d="M411,866L316,962L490,1028Z" fill="#f08c53" stroke="#f08c53" stroke-width="1.51"/><path d="M316,962L396,1147L490,1028Z" fill="#e48752" stroke="#e48752" stroke-width="1.51"/><path d="M396,1147L282,1345L489,1271Z" fill="#cc7e4f" stroke="#cc7e4f" stroke-width="1.51"/><path d="M332,-235L300,-116L395,-252Z" fill="#ffe0c2" stroke="#ffe0c2" stroke-width="1.51"/><path d="M244,90L450,110L462,-11Z" fill="#fed2a6" stroke="#fed2a6" stroke-width="1.51"/><path d="M272,641L406,671L463,508Z" fill="#fea968" stroke="#fea968" stroke-width="1.51"/><path d="M239,539L272,641L463,508Z" fill="#ffae70" stroke="#ffae70" stroke-width="1.51"/><path d="M270,438L239,539L463,508Z" fill="#ffb477" stroke="#ffb477" stroke-width="1.51"/><path d="M420,349L270,438L463,508Z" fill="#ffb67a" stroke="#ffb67a" stroke-width="1.51"/><path d="M300,-116L244,90L462,-11Z" fill="#fed8b3" stroke="#fed8b3" stroke-width="1.51"/><path d="M406,671L263,888L411,866Z" fill="#f9995c" stroke="#f9995c" stroke-width="1.51"/><path d="M298,198L407,230L450,110Z" fill="#feca98" stroke="#feca98" stroke-width="1.51"/><path d="M244,90L298,198L450,110Z" fill="#fdd0a3" stroke="#fdd0a3" stroke-width="1.51"/><path d="M190,1155L282,1345L396,1147Z" fill="#d18357" stroke="#d18357" stroke-width="1.51"/><path d="M316,962L234,1098L396,1147Z" fill="#e28a58" stroke="#e28a58" stroke-width="1.51"/><path d="M272,641L263,888L406,671Z" fill="#fda063" stroke="#fda063" stroke-width="1.51"/><path d="M407,230L298,198L420,349Z" fill="#fec48f" stroke="#fec48f" stroke-width="1.51"/><path d="M298,198L270,438L420,349Z" fill="#fec189" stroke="#fec189" stroke-width="1.51"/><path d="M263,888L316,962L411,866Z" fill="#f4935a" stroke="#f4935a" stroke-width="1.51"/><path d="M234,1098L190,1155L396,1147Z" fill="#da8859" stroke="#da8859" stroke-width="1.51"/><path d="M151,284L142,373L270,438Z" fill="#ffc38f" stroke="#ffc38f" stroke-width="1.51"/><path d="M98,812L263,888L272,641Z" fill="#fca168" stroke="#fca168" stroke-width="1.51"/><path d="M101,680L98,812L272,641Z" fill="#ffa870" stroke="#ffa870" stroke-width="1.51"/><path d="M22,1244L-149,1323L282,1345Z" fill="#ca8766" stroke="#ca8766" stroke-width="1.51"/><path d="M190,1155L160,1239L282,1345Z" fill="#ce855c" stroke="#ce855c" stroke-width="1.51"/><path d="M151,284L270,438L298,198Z" fill="#ffc593" stroke="#ffc593" stroke-width="1.51"/><path d="M134,-23L244,90L300,-116Z" fill="#fedcbb" stroke="#fedcbb" stroke-width="1.51"/><path d="M112,-191L300,-116L332,-235Z" fill="#ffe2c7" stroke="#ffe2c7" stroke-width="1.51"/><path d="M263,888L136,1021L316,962Z" fill="#f2935f" stroke="#f2935f" stroke-width="1.51"/><path d="M136,1021L234,1098L316,962Z" fill="#e9905e" stroke="#e9905e" stroke-width="1.51"/><path d="M160,1239L22,1244L282,1345Z" fill="#cc855f" stroke="#cc855f" stroke-width="1.51"/><path d="M244,90L156,129L298,198Z" fill="#fed3aa" stroke="#fed3aa" stroke-width="1.51"/><path d="M112,-191L134,-23L300,-116Z" fill="#fee2c7" stroke="#fee2c7" stroke-width="1.51"/><path d="M156,129L151,284L298,198Z" fill="#fecfa3" stroke="#fecfa3" stroke-width="1.51"/><path d="M113,521L239,539L270,438Z" fill="#ffb87f" stroke="#ffb87f" stroke-width="1.51"/><path d="M142,373L113,521L270,438Z" fill="#ffbe87" stroke="#ffbe87" stroke-width="1.51"/><path d="M239,539L101,680L272,641Z" fill="#ffae74" stroke="#ffae74" stroke-width="1.51"/><path d="M113,521L101,680L239,539Z" fill="#ffb37c" stroke="#ffb37c" stroke-width="1.51"/><path d="M98,812L136,1021L263,888Z" fill="#f59966" stroke="#f59966" stroke-width="1.51"/><path d="M134,-23L156,129L244,90Z" fill="#fedab6" stroke="#fedab6" stroke-width="1.51"/><path d="M98,812L40,861L136,1021Z" fill="#f79d6c" stroke="#f79d6c" stroke-width="1.51"/><path d="M136,1021L190,1155L234,1098Z" fill="#e08e60" stroke="#e08e60" stroke-width="1.51"/><path d="M29,1122L160,1239L190,1155Z" fill="#d78b63" stroke="#d78b63" stroke-width="1.51"/><path d="M136,1021L29,1122L190,1155Z" fill="#e09065" stroke="#e09065" stroke-width="1.51"/><path d="M112,-191L13,-28L134,-23Z" fill="#fee5cc" stroke="#fee5cc" stroke-width="1.51"/><path d="M-30,418L113,521L142,373Z" fill="#ffc290" stroke="#ffc290" stroke-width="1.51"/><path d="M134,-23L-13,49L156,129Z" fill="#fedebd" stroke="#fedebd" stroke-width="1.51"/><path d="M-51,217L151,284L156,129Z" fill="#ffd3ab" stroke="#ffd3ab" stroke-width="1.51"/><path d="M29,1122L22,1244L160,1239Z" fill="#d58c66" stroke="#d58c66" stroke-width="1.51"/><path d="M4,537L101,680L113,521Z" fill="#ffb681" stroke="#ffb681" stroke-width="1.51"/><path d="M13,-28L-13,49L134,-23Z" fill="#fee2c6" stroke="#fee2c6" stroke-width="1.51"/><path d="M-13,49L-51,217L156,129Z" fill="#fedbb9" stroke="#fedbb9" stroke-width="1.51"/><path d="M40,861L-26,1027L136,1021Z" fill="#f3996c" stroke="#f3996c" stroke-width="1.51"/><path d="M-30,418L142,373L151,284Z" fill="#ffc798" stroke="#ffc798" stroke-width="1.51"/><path d="M-51,217L-30,418L151,284Z" fill="#ffcda2" stroke="#ffcda2" stroke-width="1.51"/><path d="M-30,418L4,537L113,521Z" fill="#ffbf8c" stroke="#ffbf8c" stroke-width="1.51"/><path d="M-26,1027L29,1122L136,1021Z" fill="#e7956a" stroke="#e7956a" stroke-width="1.51"/><path d="M-50,707L98,812L101,680Z" fill="#ffaa75" stroke="#ffaa75" stroke-width="1.51"/><path d="M-51,-201L13,-28L112,-191Z" fill="#fee9d4" stroke="#fee9d4" stroke-width="1.51"/><path d="M4,537L-50,707L101,680Z" fill="#ffb37f" stroke="#ffb37f" stroke-width="1.51"/><path d="M-50,707L40,861L98,812Z" fill="#fea774" stroke="#fea774" stroke-width="1.51"/><path d="M-51,217L-136,265L-30,418Z" fill="#ffd0a7" stroke="#ffd0a7" stroke-width="1.51"/><path d="M-51,-201L-134,-79L13,-28Z" fill="#ffead5" stroke="#ffead5" stroke-width="1.51"/><path d="M-210,1105L22,1244L29,1122Z" fill="#db916d" stroke="#db916d" stroke-width="1.51"/><path d="M-50,707L-210,797L40,861Z" fill="#ffa978" stroke="#ffa978" stroke-width="1.51"/><path d="M-210,797L-115,966L40,861Z" fill="#fba376" stroke="#fba376" stroke-width="1.51"/><path d="M-115,966L-26,1027L40,861Z" fill="#f69c70" stroke="#f69c70" stroke-width="1.51"/><path d="M-130,75L-51,217L-13,49Z" fill="#ffdebf" stroke="#ffdebf" stroke-width="1.51"/><path d="M-210,1105L-149,1323L22,1244Z" fill="#d48f6e" stroke="#d48f6e" stroke-width="1.51"/><path d="M-26,1027L-210,1105L29,1122Z" fill="#e5956e" stroke="#e5956e" stroke-width="1.51"/><path d="M-183,501L-50,707L4,537Z" fill="#ffba88" stroke="#ffba88" stroke-width="1.51"/><path d="M-134,-79L-13,49L13,-28Z" fill="#ffe5cc" stroke="#ffe5cc" stroke-width="1.51"/><path d="M-30,418L-183,501L4,537Z" fill="#ffc191" stroke="#ffc191" stroke-width="1.51"/><path d="M-183,501L-219,680L-50,707Z" fill="#ffb887" stroke="#ffb887" stroke-width="1.51"/><path d="M-136,265L-197,399L-30,418Z" fill="#ffcca1" stroke="#ffcca1" stroke-width="1.51"/><path d="M-134,-79L-130,75L-13,49Z" fill="#ffe5cb" stroke="#ffe5cb" stroke-width="1.51"/><path d="M-115,966L-210,1105L-26,1027Z" fill="#ec9a72" stroke="#ec9a72" stroke-width="1.51"/><path d="M-197,399L-183,501L-30,418Z" fill="#ffc699" stroke="#ffc699" stroke-width="1.51"/><path d="M-130,-225L-134,-79L-51,-201Z" fill="#ffeddc" stroke="#ffeddc" stroke-width="1.51"/><path d="M-130,75L-136,265L-51,217Z" fill="#ffdab8" stroke="#ffdab8" stroke-width="1.51"/><path d="M-219,680L-210,797L-50,707Z" fill="#ffb080" stroke="#ffb080" stroke-width="1.51"/><path d="M-210,797L-210,1105L-115,966Z" fill="#f7a077" stroke="#f7a077" stroke-width="1.51"/><path d="M-197,399L-134,-79L-130,-225Z" fill="#ffe5cc" stroke="#ffe5cc" stroke-width="1.51"/><path d="M-134,-79L-197,399L-130,75Z" fill="#ffe0c2" stroke="#ffe0c2" stroke-width="1.51"/><path d="M-197,399L-136,265L-130,75Z" fill="#ffd6b2" stroke="#ffd6b2" stroke-width="1.51"/><path d="M-197,399L-219,680L-183,501Z" fill="#ffc193" stroke="#ffc193" stroke-width="1.51"/><path d="M-210,797L-219,680L-210,1105Z" fill="#fda77c" stroke="#fda77c" stroke-width="1.51"/></g></svg>
