<svg xmlns="http://www.w3.org/2000/svg" width="1920" height="1080"><g id="img" transform="rotate(180 960 540)"><path d="M125,1246L-233,1283L214,1246Z" fill="#d1855f" stroke="#d1855f" stroke-width="1.51"/><path d="M-170,-189L79,-180L223,-184Z" fill="#fff2ae" stroke="#fff2ae" stroke-width="1.51"/><path d="M214,1246L-233,1283L390,1256Z" fill="#cf8159" stroke="#cf8159" stroke-width="1.51"/><path d="M-170,-189L223,-184L540,-214Z" fill="#ffeda4" stroke="#ffeda4" stroke-width="1.51"/><path d="M390,1256L-233,1283L644,1287Z" fill="#cc7c51" stroke="#cc7c51" stroke-width="1.51"/><path d="M791,1275L644,1287L1078,1291Z" fill="#c75935" stroke="#c75935" stroke-width="1.51"/><path d="M992,-213L1241,-183L1389,-194Z" fill="#ffaf74" stroke="#ffaf74" stroke-width="1.51"/><path d="M1520,1270L1404,1273L1672,1281Z" fill="#bc1324" stroke="#bc1324" stroke-width="1.51"/><path d="M1404,1273L1078,1291L1672,1281Z" fill="#c12327" stroke="#c12327" stroke-width="1.51"/><path d="M992,-213L1389,-194L1707,-205Z" fill="#ffa670" stroke="#ffa670" stroke-width="1.51"/><path d="M1389,-194L1547,-181L1707,-205Z" fill="#fd9c6a" stroke="#fd9c6a" stroke-width="1.51"/><path d="M1707,-205L1826,-174L1982,-196Z" fill="#ea936c" stroke="#ea936c" stroke-width="1.51"/><path d="M1672,1281L1078,1291L2005,1298Z" fill="#b70b23" stroke="#b70b23" stroke-width="1.51"/><path d="M1838,1268L1672,1281L2005,1298Z" fill="#aa0226" stroke="#aa0226" stroke-width="1.51"/><path d="M1974,244L1991,401L2096,226Z" fill="#d26d3e" stroke="#d26d3e" stroke-width="1.51"/><path d="M1978,840L2093,857L2096,677Z" fill="#c82727" stroke="#c82727" stroke-width="1.51"/><path d="M1986,528L2096,677L2100,512Z" fill="#cb4d30" stroke="#cb4d30" stroke-width="1.51"/><path d="M2092,-54L1995,-51L2114,89Z" fill="#d0825a" stroke="#d0825a" stroke-width="1.51"/><path d="M1995,-51L1979,101L2114,89Z" fill="#d48155" stroke="#d48155" stroke-width="1.51"/><path d="M1979,101L2096,226L2114,89Z" fill="#cf7b4c" stroke="#cf7b4c" stroke-width="1.51"/><path d="M2010,1150L2005,1298L2115,1285Z" fill="#9c0026" stroke="#9c0026" stroke-width="1.51"/><path d="M1707,-205L1982,-196L2115,-194Z" fill="#e2906d" stroke="#e2906d" stroke-width="1.51"/><path d="M1982,-196L2092,-54L2115,-194Z" fill="#d28968" stroke="#d28968" stroke-width="1.51"/><path d="M2092,-54L2114,89L2115,-194Z" fill="#cd835e" stroke="#cd835e" stroke-width="1.51"/><path d="M1945,973L2010,1150L2119,952Z" fill="#b90724" stroke="#b90724" stroke-width="1.51"/><path d="M2096,677L2093,857L2119,952Z" fill="#c02126" stroke="#c02126" stroke-width="1.51"/><path d="M1991,401L2100,512L2132,418Z" fill="#cb5c35" stroke="#cb5c35" stroke-width="1.51"/><path d="M2096,226L1991,401L2132,418Z" fill="#cb6639" stroke="#cb6639" stroke-width="1.51"/><path d="M2114,89L2096,226L2132,418Z" fill="#c86f42" stroke="#c86f42" stroke-width="1.51"/><path d="M2115,-194L2114,89L2132,418Z" fill="#c97b50" stroke="#c97b50" stroke-width="1.51"/><path d="M2096,677L2119,952L2132,418Z" fill="#c5392c" stroke="#c5392c" stroke-width="1.51"/><path d="M2100,512L2096,677L2132,418Z" fill="#c65132" stroke="#c65132" stroke-width="1.51"/><path d="M2119,952L2010,1150L2134,1134Z" fill="#ae0325" stroke="#ae0325" stroke-width="1.51"/><path d="M2010,1150L2115,1285L2134,1134Z" fill="#a10026" stroke="#a10026" stroke-width="1.51"/><path d="M2132,418L2119,952L2134,1134Z" fill="#bd1f26" stroke="#bd1f26" stroke-width="1.51"/><path d="M1959,685L1978,840L2096,677Z" fill="#cf2f29" stroke="#cf2f29" stroke-width="1.51"/><path d="M1982,-196L1995,-51L2092,-54Z" fill="#d68863" stroke="#d68863" stroke-width="1.51"/><path d="M1978,840L1945,973L2093,857Z" fill="#c71824" stroke="#c71824" stroke-width="1.51"/><path d="M2093,857L1945,973L2119,952Z" fill="#bf1023" stroke="#bf1023" stroke-width="1.51"/><path d="M1986,528L1959,685L2096,677Z" fill="#d0442e" stroke="#d0442e" stroke-width="1.51"/><path d="M1991,401L1986,528L2100,512Z" fill="#d05934" stroke="#d05934" stroke-width="1.51"/><path d="M1979,101L1974,244L2096,226Z" fill="#d37747" stroke="#d37747" stroke-width="1.51"/><path d="M1857,1010L1864,1137L1945,973Z" fill="#c60724" stroke="#c60724" stroke-width="1.51"/><path d="M1856,128L1974,244L1979,101Z" fill="#dc7e4a" stroke="#dc7e4a" stroke-width="1.51"/><path d="M1831,575L1959,685L1986,528Z" fill="#d94d2f" stroke="#d94d2f" stroke-width="1.51"/><path d="M1974,244L1799,284L1991,401Z" fill="#dc6e3c" stroke="#dc6e3c" stroke-width="1.51"/><path d="M1799,284L1826,419L1991,401Z" fill="#e06a37" stroke="#e06a37" stroke-width="1.51"/><path d="M1826,419L1986,528L1991,401Z" fill="#d95f34" stroke="#d95f34" stroke-width="1.51"/><path d="M1982,-196L1844,-61L1995,-51Z" fill="#e08b63" stroke="#e08b63" stroke-width="1.51"/><path d="M1844,-61L1979,101L1995,-51Z" fill="#de875a" stroke="#de875a" stroke-width="1.51"/><path d="M1945,973L1864,1137L2010,1150Z" fill="#bc0325" stroke="#bc0325" stroke-width="1.51"/><path d="M1838,1268L2005,1298L2010,1150Z" fill="#a70026" stroke="#a70026" stroke-width="1.51"/><path d="M1864,1137L1838,1268L2010,1150Z" fill="#b30026" stroke="#b30026" stroke-width="1.51"/><path d="M1844,-61L1856,128L1979,101Z" fill="#e38554" stroke="#e38554" stroke-width="1.51"/><path d="M1826,-174L1844,-61L1982,-196Z" fill="#e68f68" stroke="#e68f68" stroke-width="1.51"/><path d="M1959,685L1846,862L1978,840Z" fill="#d42827" stroke="#d42827" stroke-width="1.51"/><path d="M1846,862L1945,973L1978,840Z" fill="#cf1923" stroke="#cf1923" stroke-width="1.51"/><path d="M1826,419L1831,575L1986,528Z" fill="#de5b32" stroke="#de5b32" stroke-width="1.51"/><path d="M1808,682L1846,862L1959,685Z" fill="#dd3028" stroke="#dd3028" stroke-width="1.51"/><path d="M1856,128L1799,284L1974,244Z" fill="#e27944" stroke="#e27944" stroke-width="1.51"/><path d="M1831,575L1808,682L1959,685Z" fill="#de452c" stroke="#de452c" stroke-width="1.51"/><path d="M1846,862L1857,1010L1945,973Z" fill="#cf0e22" stroke="#cf0e22" stroke-width="1.51"/><path d="M1826,419L1717,507L1831,575Z" fill="#e45e31" stroke="#e45e31" stroke-width="1.51"/><path d="M1706,-57L1688,104L1844,-61Z" fill="#ee8d58" stroke="#ee8d58" stroke-width="1.51"/><path d="M1808,682L1684,817L1846,862Z" fill="#e02d25" stroke="#e02d25" stroke-width="1.51"/><path d="M1844,-61L1688,104L1856,128Z" fill="#e98853" stroke="#e98853" stroke-width="1.51"/><path d="M1688,104L1799,284L1856,128Z" fill="#e98147" stroke="#e98147" stroke-width="1.51"/><path d="M1717,954L1662,1144L1857,1010Z" fill="#cf0e22" stroke="#cf0e22" stroke-width="1.51"/><path d="M1846,862L1717,954L1857,1010Z" fill="#d41220" stroke="#d41220" stroke-width="1.51"/><path d="M1857,1010L1662,1144L1864,1137Z" fill="#c60724" stroke="#c60724" stroke-width="1.51"/><path d="M1662,1144L1838,1268L1864,1137Z" fill="#bc0425" stroke="#bc0425" stroke-width="1.51"/><path d="M1662,1144L1672,1281L1838,1268Z" fill="#b80624" stroke="#b80624" stroke-width="1.51"/><path d="M1826,-174L1706,-57L1844,-61Z" fill="#ec9062" stroke="#ec9062" stroke-width="1.51"/><path d="M1688,104L1659,245L1799,284Z" fill="#ed7f42" stroke="#ed7f42" stroke-width="1.51"/><path d="M1690,699L1684,817L1808,682Z" fill="#e63627" stroke="#e63627" stroke-width="1.51"/><path d="M1799,284L1705,409L1826,419Z" fill="#e66c35" stroke="#e66c35" stroke-width="1.51"/><path d="M1684,817L1717,954L1846,862Z" fill="#dc2021" stroke="#dc2021" stroke-width="1.51"/><path d="M1707,-205L1706,-57L1826,-174Z" fill="#f09366" stroke="#f09366" stroke-width="1.51"/><path d="M1705,409L1717,507L1826,419Z" fill="#e86532" stroke="#e86532" stroke-width="1.51"/><path d="M1690,699L1808,682L1831,575Z" fill="#e4462a" stroke="#e4462a" stroke-width="1.51"/><path d="M1717,507L1690,699L1831,575Z" fill="#e6522c" stroke="#e6522c" stroke-width="1.51"/><path d="M1659,245L1705,409L1799,284Z" fill="#ea7438" stroke="#ea7438" stroke-width="1.51"/><path d="M1659,245L1573,404L1705,409Z" fill="#ee7133" stroke="#ee7133" stroke-width="1.51"/><path d="M1552,87L1688,104L1706,-57Z" fill="#f38d51" stroke="#f38d51" stroke-width="1.51"/><path d="M1524,-19L1552,87L1706,-57Z" fill="#f89155" stroke="#f89155" stroke-width="1.51"/><path d="M1547,-181L1706,-57L1707,-205Z" fill="#f69665" stroke="#f69665" stroke-width="1.51"/><path d="M1505,542L1690,699L1717,507Z" fill="#ed562a" stroke="#ed562a" stroke-width="1.51"/><path d="M1705,409L1573,404L1717,507Z" fill="#ed6830" stroke="#ed6830" stroke-width="1.51"/><path d="M1573,404L1505,542L1717,507Z" fill="#f0652d" stroke="#f0652d" stroke-width="1.51"/><path d="M1524,974L1662,1144L1717,954Z" fill="#d71320" stroke="#d71320" stroke-width="1.51"/><path d="M1684,817L1559,864L1717,954Z" fill="#e22320" stroke="#e22320" stroke-width="1.51"/><path d="M1559,864L1524,974L1717,954Z" fill="#e21b1d" stroke="#e21b1d" stroke-width="1.51"/><path d="M1524,974L1509,1109L1662,1144Z" fill="#d61420" stroke="#d61420" stroke-width="1.51"/><path d="M1572,231L1659,245L1688,104Z" fill="#f28343" stroke="#f28343" stroke-width="1.51"/><path d="M1505,542L1513,717L1690,699Z" fill="#f14b27" stroke="#f14b27" stroke-width="1.51"/><path d="M1547,-181L1524,-19L1706,-57Z" fill="#f9955e" stroke="#f9955e" stroke-width="1.51"/><path d="M1513,717L1684,817L1690,699Z" fill="#ec3624" stroke="#ec3624" stroke-width="1.51"/><path d="M1572,231L1573,404L1659,245Z" fill="#f27938" stroke="#f27938" stroke-width="1.51"/><path d="M1662,1144L1520,1270L1672,1281Z" fill="#bf0b23" stroke="#bf0b23" stroke-width="1.51"/><path d="M1513,717L1559,864L1684,817Z" fill="#ec3021" stroke="#ec3021" stroke-width="1.51"/><path d="M1552,87L1572,231L1688,104Z" fill="#f58947" stroke="#f58947" stroke-width="1.51"/><path d="M1509,1109L1520,1270L1662,1144Z" fill="#cb1022" stroke="#cb1022" stroke-width="1.51"/><path d="M1247,1237L1078,1291L1404,1273Z" fill="#c7302a" stroke="#c7302a" stroke-width="1.51"/><path d="M1505,542L1405,665L1513,717Z" fill="#f45429" stroke="#f45429" stroke-width="1.51"/><path d="M1513,717L1379,803L1559,864Z" fill="#f03923" stroke="#f03923" stroke-width="1.51"/><path d="M1552,87L1403,123L1572,231Z" fill="#f88d48" stroke="#f88d48" stroke-width="1.51"/><path d="M1403,123L1389,262L1572,231Z" fill="#fa8a43" stroke="#fa8a43" stroke-width="1.51"/><path d="M1421,419L1505,542L1573,404Z" fill="#f56d30" stroke="#f56d30" stroke-width="1.51"/><path d="M1572,231L1389,262L1573,404Z" fill="#f67c38" stroke="#f67c38" stroke-width="1.51"/><path d="M1389,262L1421,419L1573,404Z" fill="#f77834" stroke="#f77834" stroke-width="1.51"/><path d="M1389,-194L1524,-19L1547,-181Z" fill="#fe9c65" stroke="#fe9c65" stroke-width="1.51"/><path d="M1389,-194L1385,-21L1524,-19Z" fill="#ff9d60" stroke="#ff9d60" stroke-width="1.51"/><path d="M1392,981L1524,974L1559,864Z" fill="#e7241e" stroke="#e7241e" stroke-width="1.51"/><path d="M1379,803L1392,981L1559,864Z" fill="#ec3121" stroke="#ec3121" stroke-width="1.51"/><path d="M1509,1109L1404,1273L1520,1270Z" fill="#c71b24" stroke="#c71b24" stroke-width="1.51"/><path d="M1524,-19L1403,123L1552,87Z" fill="#fb9251" stroke="#fb9251" stroke-width="1.51"/><path d="M1392,981L1509,1109L1524,974Z" fill="#df2221" stroke="#df2221" stroke-width="1.51"/><path d="M1385,-21L1403,123L1524,-19Z" fill="#fd9756" stroke="#fd9756" stroke-width="1.51"/><path d="M540,-214L810,-181L992,-213Z" fill="#ffcf83" stroke="#ffcf83" stroke-width="1.51"/><path d="M945,1267L791,1275L1078,1291Z" fill="#c75332" stroke="#c75332" stroke-width="1.51"/><path d="M1421,419L1401,510L1505,542Z" fill="#f76c30" stroke="#f76c30" stroke-width="1.51"/><path d="M1370,1128L1404,1273L1509,1109Z" fill="#d12125" stroke="#d12125" stroke-width="1.51"/><path d="M1392,981L1370,1128L1509,1109Z" fill="#dc2523" stroke="#dc2523" stroke-width="1.51"/><path d="M1401,510L1405,665L1505,542Z" fill="#f6622d" stroke="#f6622d" stroke-width="1.51"/><path d="M1405,665L1379,803L1513,717Z" fill="#f64526" stroke="#f64526" stroke-width="1.51"/><path d="M-57,1253L-233,1283L125,1246Z" fill="#d18765" stroke="#d18765" stroke-width="1.51"/><path d="M1279,-25L1385,-21L1389,-194Z" fill="#ffa163" stroke="#ffa163" stroke-width="1.51"/><path d="M1241,-183L1279,-25L1389,-194Z" fill="#ffa66a" stroke="#ffa66a" stroke-width="1.51"/><path d="M1272,1098L1370,1128L1392,981Z" fill="#e02d25" stroke="#e02d25" stroke-width="1.51"/><path d="M1379,803L1266,852L1392,981Z" fill="#f13923" stroke="#f13923" stroke-width="1.51"/><path d="M1224,242L1389,262L1403,123Z" fill="#fe8f46" stroke="#fe8f46" stroke-width="1.51"/><path d="M1385,-21L1273,81L1403,123Z" fill="#ff9955" stroke="#ff9955" stroke-width="1.51"/><path d="M1370,1128L1247,1237L1404,1273Z" fill="#cd2827" stroke="#cd2827" stroke-width="1.51"/><path d="M1242,704L1379,803L1405,665Z" fill="#f94c29" stroke="#f94c29" stroke-width="1.51"/><path d="M1401,510L1223,523L1405,665Z" fill="#fa6830" stroke="#fa6830" stroke-width="1.51"/><path d="M1223,523L1242,704L1405,665Z" fill="#fc602e" stroke="#fc602e" stroke-width="1.51"/><path d="M1265,366L1401,510L1421,419Z" fill="#fa7635" stroke="#fa7635" stroke-width="1.51"/><path d="M1389,262L1265,366L1421,419Z" fill="#fb7f38" stroke="#fb7f38" stroke-width="1.51"/><path d="M1279,-25L1273,81L1385,-21Z" fill="#ff9e5b" stroke="#ff9e5b" stroke-width="1.51"/><path d="M1258,994L1272,1098L1392,981Z" fill="#e63225" stroke="#e63225" stroke-width="1.51"/><path d="M1266,852L1258,994L1392,981Z" fill="#ee3522" stroke="#ee3522" stroke-width="1.51"/><path d="M1265,366L1223,523L1401,510Z" fill="#fd7635" stroke="#fd7635" stroke-width="1.51"/><path d="M1273,81L1224,242L1403,123Z" fill="#ff984d" stroke="#ff984d" stroke-width="1.51"/><path d="M1224,242L1265,366L1389,262Z" fill="#fe893f" stroke="#fe893f" stroke-width="1.51"/><path d="M1242,704L1266,852L1379,803Z" fill="#f84728" stroke="#f84728" stroke-width="1.51"/><path d="M992,-213L1127,-162L1241,-183Z" fill="#ffb676" stroke="#ffb676" stroke-width="1.51"/><path d="M1272,1098L1247,1237L1370,1128Z" fill="#d92d28" stroke="#d92d28" stroke-width="1.51"/><path d="M1223,523L1136,555L1242,704Z" fill="#fd6f32" stroke="#fd6f32" stroke-width="1.51"/><path d="M1092,412L1223,523L1265,366Z" fill="#fe8339" stroke="#fe8339" stroke-width="1.51"/><path d="M1242,704L1123,824L1266,852Z" fill="#f95029" stroke="#f95029" stroke-width="1.51"/><path d="M1104,975L1258,994L1266,852Z" fill="#f04124" stroke="#f04124" stroke-width="1.51"/><path d="M1123,824L1104,975L1266,852Z" fill="#f44d28" stroke="#f44d28" stroke-width="1.51"/><path d="M1258,994L1094,1097L1272,1098Z" fill="#e43c28" stroke="#e43c28" stroke-width="1.51"/><path d="M1094,1097L1247,1237L1272,1098Z" fill="#dc3a2a" stroke="#dc3a2a" stroke-width="1.51"/><path d="M1111,126L1224,242L1273,81Z" fill="#ff9f50" stroke="#ff9f50" stroke-width="1.51"/><path d="M1094,-70L1111,126L1273,81Z" fill="#ffa85c" stroke="#ffa85c" stroke-width="1.51"/><path d="M1241,-183L1127,-162L1279,-25Z" fill="#ffac6c" stroke="#ffac6c" stroke-width="1.51"/><path d="M1127,-162L1094,-70L1279,-25Z" fill="#ffad6a" stroke="#ffad6a" stroke-width="1.51"/><path d="M1094,-70L1273,81L1279,-25Z" fill="#ffa660" stroke="#ffa660" stroke-width="1.51"/><path d="M1224,242L1137,247L1265,366Z" fill="#ff9042" stroke="#ff9042" stroke-width="1.51"/><path d="M1104,975L1094,1097L1258,994Z" fill="#e84628" stroke="#e84628" stroke-width="1.51"/><path d="M1137,247L1092,412L1265,366Z" fill="#ff8e3e" stroke="#ff8e3e" stroke-width="1.51"/><path d="M1111,126L1137,247L1224,242Z" fill="#ff9d4c" stroke="#ff9d4c" stroke-width="1.51"/><path d="M1136,555L1096,715L1242,704Z" fill="#fd6930" stroke="#fd6930" stroke-width="1.51"/><path d="M1096,715L1123,824L1242,704Z" fill="#fc5b2c" stroke="#fc5b2c" stroke-width="1.51"/><path d="M1094,1097L1078,1291L1247,1237Z" fill="#d2402c" stroke="#d2402c" stroke-width="1.51"/><path d="M1092,412L1136,555L1223,523Z" fill="#fd8038" stroke="#fd8038" stroke-width="1.51"/><path d="M535,1263L390,1256L644,1287Z" fill="#cc6e41" stroke="#cc6e41" stroke-width="1.51"/><path d="M945,1267L1078,1291L1094,1097Z" fill="#d04c2f" stroke="#d04c2f" stroke-width="1.51"/><path d="M1094,-70L991,-70L1111,126Z" fill="#ffb365" stroke="#ffb365" stroke-width="1.51"/><path d="M991,-70L946,102L1111,126Z" fill="#ffb461" stroke="#ffb461" stroke-width="1.51"/><path d="M995,817L1104,975L1123,824Z" fill="#f4592b" stroke="#f4592b" stroke-width="1.51"/><path d="M1092,412L926,536L1136,555Z" fill="#fd883a" stroke="#fd883a" stroke-width="1.51"/><path d="M970,692L1096,715L1136,555Z" fill="#fd7333" stroke="#fd7333" stroke-width="1.51"/><path d="M926,536L970,692L1136,555Z" fill="#fd8138" stroke="#fd8138" stroke-width="1.51"/><path d="M1111,126L964,256L1137,247Z" fill="#ffa44e" stroke="#ffa44e" stroke-width="1.51"/><path d="M964,256L1092,412L1137,247Z" fill="#fe9b45" stroke="#fe9b45" stroke-width="1.51"/><path d="M1096,715L995,817L1123,824Z" fill="#fa612e" stroke="#fa612e" stroke-width="1.51"/><path d="M938,428L926,536L1092,412Z" fill="#fe923e" stroke="#fe923e" stroke-width="1.51"/><path d="M929,1115L945,1267L1094,1097Z" fill="#da5330" stroke="#da5330" stroke-width="1.51"/><path d="M991,-70L1094,-70L1127,-162Z" fill="#ffb76e" stroke="#ffb76e" stroke-width="1.51"/><path d="M992,-213L991,-70L1127,-162Z" fill="#ffbb75" stroke="#ffbb75" stroke-width="1.51"/><path d="M964,256L938,428L1092,412Z" fill="#fe9a42" stroke="#fe9a42" stroke-width="1.51"/><path d="M942,1004L1094,1097L1104,975Z" fill="#e8522c" stroke="#e8522c" stroke-width="1.51"/><path d="M995,817L942,1004L1104,975Z" fill="#f15a2a" stroke="#f15a2a" stroke-width="1.51"/><path d="M946,102L964,256L1111,126Z" fill="#ffae55" stroke="#ffae55" stroke-width="1.51"/><path d="M942,1004L929,1115L1094,1097Z" fill="#e4572e" stroke="#e4572e" stroke-width="1.51"/><path d="M970,692L995,817L1096,715Z" fill="#fd6a31" stroke="#fd6a31" stroke-width="1.51"/><path d="M540,-214L642,-171L810,-181Z" fill="#ffd584" stroke="#ffd584" stroke-width="1.51"/><path d="M807,-40L809,69L946,102Z" fill="#ffbf66" stroke="#ffbf66" stroke-width="1.51"/><path d="M831,284L938,428L964,256Z" fill="#fea547" stroke="#fea547" stroke-width="1.51"/><path d="M926,536L820,673L970,692Z" fill="#fd8439" stroke="#fd8439" stroke-width="1.51"/><path d="M807,-40L946,102L991,-70Z" fill="#ffbe69" stroke="#ffbe69" stroke-width="1.51"/><path d="M810,-181L807,-40L991,-70Z" fill="#ffc475" stroke="#ffc475" stroke-width="1.51"/><path d="M810,-181L991,-70L992,-213Z" fill="#ffc479" stroke="#ffc479" stroke-width="1.51"/><path d="M970,692L846,863L995,817Z" fill="#fa6e31" stroke="#fa6e31" stroke-width="1.51"/><path d="M846,863L942,1004L995,817Z" fill="#f4652e" stroke="#f4652e" stroke-width="1.51"/><path d="M820,673L846,863L970,692Z" fill="#fe7535" stroke="#fe7535" stroke-width="1.51"/><path d="M831,284L830,411L938,428Z" fill="#fea345" stroke="#fea345" stroke-width="1.51"/><path d="M929,1115L791,1275L945,1267Z" fill="#d15933" stroke="#d15933" stroke-width="1.51"/><path d="M809,69L831,284L946,102Z" fill="#ffb85a" stroke="#ffb85a" stroke-width="1.51"/><path d="M946,102L831,284L964,256Z" fill="#ffaf52" stroke="#ffaf52" stroke-width="1.51"/><path d="M789,1124L791,1275L929,1115Z" fill="#d95e34" stroke="#d95e34" stroke-width="1.51"/><path d="M846,863L796,975L942,1004Z" fill="#f1662e" stroke="#f1662e" stroke-width="1.51"/><path d="M785,571L820,673L926,536Z" fill="#fe8d3c" stroke="#fe8d3c" stroke-width="1.51"/><path d="M796,975L789,1124L929,1115Z" fill="#e56232" stroke="#e56232" stroke-width="1.51"/><path d="M830,411L926,536L938,428Z" fill="#fe9940" stroke="#fe9940" stroke-width="1.51"/><path d="M796,975L929,1115L942,1004Z" fill="#e86130" stroke="#e86130" stroke-width="1.51"/><path d="M830,411L785,571L926,536Z" fill="#fe9840" stroke="#fe9840" stroke-width="1.51"/><path d="M673,664L700,837L820,673Z" fill="#fe8239" stroke="#fe8239" stroke-width="1.51"/><path d="M695,406L785,571L830,411Z" fill="#fea044" stroke="#fea044" stroke-width="1.51"/><path d="M809,69L694,107L831,284Z" fill="#ffbd5c" stroke="#ffbd5c" stroke-width="1.51"/><path d="M694,107L635,280L831,284Z" fill="#ffba57" stroke="#ffba57" stroke-width="1.51"/><path d="M695,406L830,411L831,284Z" fill="#fea847" stroke="#fea847" stroke-width="1.51"/><path d="M820,673L700,837L846,863Z" fill="#fb7835" stroke="#fb7835" stroke-width="1.51"/><path d="M700,837L796,975L846,863Z" fill="#f57031" stroke="#f57031" stroke-width="1.51"/><path d="M695,406L704,570L785,571Z" fill="#fe9e43" stroke="#fe9e43" stroke-width="1.51"/><path d="M691,1117L789,1124L796,975Z" fill="#e56834" stroke="#e56834" stroke-width="1.51"/><path d="M642,-171L807,-40L810,-181Z" fill="#ffcd7c" stroke="#ffcd7c" stroke-width="1.51"/><path d="M635,280L695,406L831,284Z" fill="#feb04c" stroke="#feb04c" stroke-width="1.51"/><path d="M704,570L673,664L785,571Z" fill="#fe943f" stroke="#fe943f" stroke-width="1.51"/><path d="M789,1124L691,1117L791,1275Z" fill="#d96436" stroke="#d96436" stroke-width="1.51"/><path d="M651,1001L691,1117L796,975Z" fill="#ea6d34" stroke="#ea6d34" stroke-width="1.51"/><path d="M642,-171L646,-19L807,-40Z" fill="#ffce77" stroke="#ffce77" stroke-width="1.51"/><path d="M807,-40L646,-19L809,69Z" fill="#ffc76d" stroke="#ffc76d" stroke-width="1.51"/><path d="M646,-19L694,107L809,69Z" fill="#ffc669" stroke="#ffc669" stroke-width="1.51"/><path d="M785,571L673,664L820,673Z" fill="#fe8c3c" stroke="#fe8c3c" stroke-width="1.51"/><path d="M691,1117L644,1287L791,1275Z" fill="#d16437" stroke="#d16437" stroke-width="1.51"/><path d="M700,837L651,1001L796,975Z" fill="#f37131" stroke="#f37131" stroke-width="1.51"/><path d="M507,666L513,838L673,664Z" fill="#ff8d41" stroke="#ff8d41" stroke-width="1.51"/><path d="M535,1263L644,1287L691,1117Z" fill="#d26a3b" stroke="#d26a3b" stroke-width="1.51"/><path d="M541,1093L535,1263L691,1117Z" fill="#dd703c" stroke="#dd703c" stroke-width="1.51"/><path d="M535,224L635,280L694,107Z" fill="#ffc25d" stroke="#ffc25d" stroke-width="1.51"/><path d="M544,976L651,1001L700,837Z" fill="#f37634" stroke="#f37634" stroke-width="1.51"/><path d="M513,838L544,976L700,837Z" fill="#f77e39" stroke="#f77e39" stroke-width="1.51"/><path d="M673,664L513,838L700,837Z" fill="#fd833a" stroke="#fd833a" stroke-width="1.51"/><path d="M695,406L532,513L704,570Z" fill="#fea446" stroke="#fea446" stroke-width="1.51"/><path d="M532,513L673,664L704,570Z" fill="#fe9b43" stroke="#fe9b43" stroke-width="1.51"/><path d="M651,1001L541,1093L691,1117Z" fill="#e67138" stroke="#e67138" stroke-width="1.51"/><path d="M646,-19L493,84L694,107Z" fill="#ffcc6d" stroke="#ffcc6d" stroke-width="1.51"/><path d="M635,280L503,375L695,406Z" fill="#feb44f" stroke="#feb44f" stroke-width="1.51"/><path d="M493,84L535,224L694,107Z" fill="#fecb67" stroke="#fecb67" stroke-width="1.51"/><path d="M503,375L532,513L695,406Z" fill="#feaf4d" stroke="#feaf4d" stroke-width="1.51"/><path d="M532,513L507,666L673,664Z" fill="#ff9b46" stroke="#ff9b46" stroke-width="1.51"/><path d="M642,-171L519,-29L646,-19Z" fill="#ffd37b" stroke="#ffd37b" stroke-width="1.51"/><path d="M223,-184L400,-154L540,-214Z" fill="#ffe596" stroke="#ffe596" stroke-width="1.51"/><path d="M540,-214L519,-29L642,-171Z" fill="#ffd885" stroke="#ffd885" stroke-width="1.51"/><path d="M519,-29L493,84L646,-19Z" fill="#ffd376" stroke="#ffd376" stroke-width="1.51"/><path d="M544,976L541,1093L651,1001Z" fill="#ec763a" stroke="#ec763a" stroke-width="1.51"/><path d="M535,224L503,375L635,280Z" fill="#ffbc58" stroke="#ffbc58" stroke-width="1.51"/><path d="M-170,-189L-66,-172L79,-180Z" fill="#fff5b4" stroke="#fff5b4" stroke-width="1.51"/><path d="M507,666L395,684L513,838Z" fill="#ff9347" stroke="#ff9347" stroke-width="1.51"/><path d="M395,684L374,810L513,838Z" fill="#ff9148" stroke="#ff9148" stroke-width="1.51"/><path d="M503,375L372,382L532,513Z" fill="#ffb655" stroke="#ffb655" stroke-width="1.51"/><path d="M353,536L507,666L532,513Z" fill="#ffa84f" stroke="#ffa84f" stroke-width="1.51"/><path d="M371,243L503,375L535,224Z" fill="#ffc45f" stroke="#ffc45f" stroke-width="1.51"/><path d="M493,84L371,243L535,224Z" fill="#ffce69" stroke="#ffce69" stroke-width="1.51"/><path d="M400,-154L519,-29L540,-214Z" fill="#ffdd8a" stroke="#ffdd8a" stroke-width="1.51"/><path d="M393,959L353,1139L541,1093Z" fill="#e97f44" stroke="#e97f44" stroke-width="1.51"/><path d="M390,1256L535,1263L541,1093Z" fill="#d67443" stroke="#d67443" stroke-width="1.51"/><path d="M353,1139L390,1256L541,1093Z" fill="#de7a46" stroke="#de7a46" stroke-width="1.51"/><path d="M393,959L541,1093L544,976Z" fill="#ee7d3f" stroke="#ee7d3f" stroke-width="1.51"/><path d="M513,838L393,959L544,976Z" fill="#f6813e" stroke="#f6813e" stroke-width="1.51"/><path d="M372,382L353,536L532,513Z" fill="#ffb556" stroke="#ffb556" stroke-width="1.51"/><path d="M353,536L395,684L507,666Z" fill="#ffa44f" stroke="#ffa44f" stroke-width="1.51"/><path d="M361,84L371,243L493,84Z" fill="#fed572" stroke="#fed572" stroke-width="1.51"/><path d="M371,243L372,382L503,375Z" fill="#fec25d" stroke="#fec25d" stroke-width="1.51"/><path d="M374,810L393,959L513,838Z" fill="#fa8a44" stroke="#fa8a44" stroke-width="1.51"/><path d="M353,-11L493,84L519,-29Z" fill="#ffd87c" stroke="#ffd87c" stroke-width="1.51"/><path d="M400,-154L353,-11L519,-29Z" fill="#ffde86" stroke="#ffde86" stroke-width="1.51"/><path d="M353,-11L361,84L493,84Z" fill="#ffda7c" stroke="#ffda7c" stroke-width="1.51"/><path d="M224,560L254,719L353,536Z" fill="#ffae5a" stroke="#ffae5a" stroke-width="1.51"/><path d="M261,88L257,232L361,84Z" fill="#fedb7a" stroke="#fedb7a" stroke-width="1.51"/><path d="M361,84L257,232L371,243Z" fill="#fed572" stroke="#fed572" stroke-width="1.51"/><path d="M371,243L259,377L372,382Z" fill="#ffc762" stroke="#ffc762" stroke-width="1.51"/><path d="M259,377L353,536L372,382Z" fill="#ffbe5e" stroke="#ffbe5e" stroke-width="1.51"/><path d="M201,820L222,987L374,810Z" fill="#fb924f" stroke="#fb924f" stroke-width="1.51"/><path d="M262,1115L353,1139L393,959Z" fill="#e9844a" stroke="#e9844a" stroke-width="1.51"/><path d="M222,987L262,1115L393,959Z" fill="#ee884c" stroke="#ee884c" stroke-width="1.51"/><path d="M374,810L222,987L393,959Z" fill="#f88c48" stroke="#f88c48" stroke-width="1.51"/><path d="M254,719L374,810L395,684Z" fill="#ff9a4f" stroke="#ff9a4f" stroke-width="1.51"/><path d="M353,536L254,719L395,684Z" fill="#ffa754" stroke="#ffa754" stroke-width="1.51"/><path d="M225,-41L353,-11L400,-154Z" fill="#ffe48d" stroke="#ffe48d" stroke-width="1.51"/><path d="M223,-184L225,-41L400,-154Z" fill="#ffe897" stroke="#ffe897" stroke-width="1.51"/><path d="M257,232L259,377L371,243Z" fill="#ffcd6b" stroke="#ffcd6b" stroke-width="1.51"/><path d="M353,1139L214,1246L390,1256Z" fill="#d57e4d" stroke="#d57e4d" stroke-width="1.51"/><path d="M262,1115L214,1246L353,1139Z" fill="#de8250" stroke="#de8250" stroke-width="1.51"/><path d="M259,377L224,560L353,536Z" fill="#ffba5f" stroke="#ffba5f" stroke-width="1.51"/><path d="M353,-11L261,88L361,84Z" fill="#ffde81" stroke="#ffde81" stroke-width="1.51"/><path d="M254,719L201,820L374,810Z" fill="#ff9951" stroke="#ff9951" stroke-width="1.51"/><path d="M225,-41L261,88L353,-11Z" fill="#ffe188" stroke="#ffe188" stroke-width="1.51"/><path d="M125,374L73,539L224,560Z" fill="#ffbe69" stroke="#ffbe69" stroke-width="1.51"/><path d="M224,560L69,661L254,719Z" fill="#ffab5e" stroke="#ffab5e" stroke-width="1.51"/><path d="M114,233L125,374L257,232Z" fill="#ffd274" stroke="#ffd274" stroke-width="1.51"/><path d="M104,126L114,233L257,232Z" fill="#ffd97d" stroke="#ffd97d" stroke-width="1.51"/><path d="M257,232L125,374L259,377Z" fill="#ffcb6c" stroke="#ffcb6c" stroke-width="1.51"/><path d="M125,374L224,560L259,377Z" fill="#ffc167" stroke="#ffc167" stroke-width="1.51"/><path d="M225,-41L119,-44L261,88Z" fill="#ffe48f" stroke="#ffe48f" stroke-width="1.51"/><path d="M119,-44L104,126L261,88Z" fill="#ffe38c" stroke="#ffe38c" stroke-width="1.51"/><path d="M104,126L257,232L261,88Z" fill="#ffdd7f" stroke="#ffdd7f" stroke-width="1.51"/><path d="M125,1246L214,1246L262,1115Z" fill="#d98255" stroke="#d98255" stroke-width="1.51"/><path d="M58,1108L125,1246L262,1115Z" fill="#e18758" stroke="#e18758" stroke-width="1.51"/><path d="M222,987L58,1108L262,1115Z" fill="#eb8a54" stroke="#eb8a54" stroke-width="1.51"/><path d="M223,-184L119,-44L225,-41Z" fill="#ffe999" stroke="#ffe999" stroke-width="1.51"/><path d="M201,820L73,863L222,987Z" fill="#fb9454" stroke="#fb9454" stroke-width="1.51"/><path d="M69,661L201,820L254,719Z" fill="#ffa05a" stroke="#ffa05a" stroke-width="1.51"/><path d="M73,863L73,968L222,987Z" fill="#f99155" stroke="#f99155" stroke-width="1.51"/><path d="M73,968L58,1108L222,987Z" fill="#f08e57" stroke="#f08e57" stroke-width="1.51"/><path d="M79,-180L119,-44L223,-184Z" fill="#ffeda2" stroke="#ffeda2" stroke-width="1.51"/><path d="M73,539L69,661L224,560Z" fill="#ffb566" stroke="#ffb566" stroke-width="1.51"/><path d="M69,661L73,863L201,820Z" fill="#ff9e5c" stroke="#ff9e5c" stroke-width="1.51"/><path d="M69,661L-87,838L73,863Z" fill="#ffa162" stroke="#ffa162" stroke-width="1.51"/><path d="M-63,-46L-73,137L104,126Z" fill="#ffe896" stroke="#ffe896" stroke-width="1.51"/><path d="M-61,239L-23,401L114,233Z" fill="#ffd57e" stroke="#ffd57e" stroke-width="1.51"/><path d="M-63,-46L104,126L119,-44Z" fill="#ffe998" stroke="#ffe998" stroke-width="1.51"/><path d="M79,-180L-63,-46L119,-44Z" fill="#ffeea3" stroke="#ffeea3" stroke-width="1.51"/><path d="M58,1108L-57,1253L125,1246Z" fill="#da885e" stroke="#da885e" stroke-width="1.51"/><path d="M114,233L-23,401L125,374Z" fill="#ffcf74" stroke="#ffcf74" stroke-width="1.51"/><path d="M-23,401L73,539L125,374Z" fill="#ffc671" stroke="#ffc671" stroke-width="1.51"/><path d="M-48,651L-87,838L69,661Z" fill="#ffa968" stroke="#ffa968" stroke-width="1.51"/><path d="M104,126L-61,239L114,233Z" fill="#ffdd84" stroke="#ffdd84" stroke-width="1.51"/><path d="M-36,1117L-57,1253L58,1108Z" fill="#e28c62" stroke="#e28c62" stroke-width="1.51"/><path d="M-73,137L-61,239L104,126Z" fill="#ffe28c" stroke="#ffe28c" stroke-width="1.51"/><path d="M-66,-172L-63,-46L79,-180Z" fill="#fff2ac" stroke="#fff2ac" stroke-width="1.51"/><path d="M-54,975L-36,1117L58,1108Z" fill="#ed9061" stroke="#ed9061" stroke-width="1.51"/><path d="M-23,401L-69,575L73,539Z" fill="#ffc272" stroke="#ffc272" stroke-width="1.51"/><path d="M-48,651L69,661L73,539Z" fill="#ffb46a" stroke="#ffb46a" stroke-width="1.51"/><path d="M-69,575L-48,651L73,539Z" fill="#ffb96e" stroke="#ffb96e" stroke-width="1.51"/><path d="M-54,975L58,1108L73,968Z" fill="#f2915d" stroke="#f2915d" stroke-width="1.51"/><path d="M-54,975L73,968L73,863Z" fill="#fa945b" stroke="#fa945b" stroke-width="1.51"/><path d="M-87,838L-54,975L73,863Z" fill="#fd9961" stroke="#fd9961" stroke-width="1.51"/><path d="M-233,80L-73,137L-63,-46Z" fill="#ffeba0" stroke="#ffeba0" stroke-width="1.51"/><path d="M-197,690L-87,838L-48,651Z" fill="#ffaa6e" stroke="#ffaa6e" stroke-width="1.51"/><path d="M-211,1119L-57,1253L-36,1117Z" fill="#e28e68" stroke="#e28e68" stroke-width="1.51"/><path d="M-54,975L-170,974L-36,1117Z" fill="#f29465" stroke="#f29465" stroke-width="1.51"/><path d="M-170,974L-211,1119L-36,1117Z" fill="#ee9369" stroke="#ee9369" stroke-width="1.51"/><path d="M-172,518L-69,575L-23,401Z" fill="#ffc578" stroke="#ffc578" stroke-width="1.51"/><path d="M-196,370L-172,518L-23,401Z" fill="#ffcd7f" stroke="#ffcd7f" stroke-width="1.51"/><path d="M-61,239L-196,370L-23,401Z" fill="#ffd380" stroke="#ffd380" stroke-width="1.51"/><path d="M-192,-59L-233,80L-63,-46Z" fill="#fff0a9" stroke="#fff0a9" stroke-width="1.51"/><path d="M-174,221L-196,370L-61,239Z" fill="#ffdb8a" stroke="#ffdb8a" stroke-width="1.51"/><path d="M-87,838L-165,859L-54,975Z" fill="#fe9c66" stroke="#fe9c66" stroke-width="1.51"/><path d="M-165,859L-170,974L-54,975Z" fill="#fb9966" stroke="#fb9966" stroke-width="1.51"/><path d="M-170,-189L-192,-59L-66,-172Z" fill="#fff5b5" stroke="#fff5b5" stroke-width="1.51"/><path d="M-66,-172L-192,-59L-63,-46Z" fill="#fff2ae" stroke="#fff2ae" stroke-width="1.51"/><path d="M-73,137L-174,221L-61,239Z" fill="#ffe18f" stroke="#ffe18f" stroke-width="1.51"/><path d="M-211,1119L-233,1283L-57,1253Z" fill="#d98d6c" stroke="#d98d6c" stroke-width="1.51"/><path d="M-69,575L-197,690L-48,651Z" fill="#ffb572" stroke="#ffb572" stroke-width="1.51"/><path d="M-197,690L-165,859L-87,838Z" fill="#ffa56d" stroke="#ffa56d" stroke-width="1.51"/><path d="M-172,518L-197,690L-69,575Z" fill="#ffbc78" stroke="#ffbc78" stroke-width="1.51"/><path d="M-233,80L-174,221L-73,137Z" fill="#ffe899" stroke="#ffe899" stroke-width="1.51"/><path d="M-233,80L-192,-59L-170,-189Z" fill="#fff4b0" stroke="#fff4b0" stroke-width="1.51"/><path d="M-211,1119L-170,974L-165,859Z" fill="#f7996b" stroke="#f7996b" stroke-width="1.51"/><path d="M-197,690L-211,1119L-165,859Z" fill="#ff9f6c" stroke="#ff9f6c" stroke-width="1.51"/><path d="M-233,80L-196,370L-174,221Z" fill="#ffe294" stroke="#ffe294" stroke-width="1.51"/><path d="M-196,370L-197,690L-172,518Z" fill="#ffc67e" stroke="#ffc67e" stroke-width="1.51"/><path d="M-233,80L-197,690L-196,370Z" fill="#ffd386" stroke="#ffd386" stroke-width="1.51"/><path d="M-233,1283L-211,1119L-197,690Z" fill="#f3976e" stroke="#f3976e" stroke-width="1.51"/><path d="M-233,80L-233,1283L-197,690Z" fill="#ffb378" stroke="#ffb378" stroke-width="1.51"/></g></svg>
